<?xml version="1.0" encoding="UTF-8"?>
<!DOCTYPE svg PUBLIC "-//W3C//DTD SVG 1.1//EN" "http://www.w3.org/Graphics/SVG/1.1/DTD/svg11.dtd">
<svg width="160mm" height="90mm" viewBox="0 0 16000 9000" version="1.1" xmlns="http://www.w3.org/2000/svg" stroke-width="28.222" stroke-linejoin="round" xml:space="preserve">
 <path fill="rgb(255,255,255)" stroke="none" d="M 8000,8999 L 0,8999 0,0 15999,0 15999,8999 8000,8999 Z"/>
 <path fill="none" stroke="rgb(179,179,179)" stroke-linejoin="round" d="M 7040,7646 L 2080,7646 2080,2340 12000,2340 12000,7646 7040,7646 Z"/>
 <path fill="none" stroke="rgb(179,179,179)" stroke-linejoin="round" d="M 12000,7645 L 2080,7645"/>
 <path fill="none" stroke="rgb(179,179,179)" stroke-linejoin="round" d="M 12000,7055 L 2080,7055"/>
 <path fill="none" stroke="rgb(179,179,179)" stroke-linejoin="round" d="M 12000,6465 L 2080,6465"/>
 <path fill="none" stroke="rgb(179,179,179)" stroke-linejoin="round" d="M 12000,5876 L 2080,5876"/>
 <path fill="none" stroke="rgb(179,179,179)" stroke-linejoin="round" d="M 12000,5286 L 2080,5286"/>
 <path fill="none" stroke="rgb(179,179,179)" stroke-linejoin="round" d="M 12000,4696 L 2080,4696"/>
 <path fill="none" stroke="rgb(179,179,179)" stroke-linejoin="round" d="M 12000,4108 L 2080,4108"/>
 <path fill="none" stroke="rgb(179,179,179)" stroke-linejoin="round" d="M 12000,3518 L 2080,3518"/>
 <path fill="none" stroke="rgb(179,179,179)" stroke-linejoin="round" d="M 12000,2928 L 2080,2928"/>
 <path fill="none" stroke="rgb(179,179,179)" stroke-linejoin="round" d="M 12000,2339 L 2080,2339"/>
 <path fill="none" stroke="rgb(179,179,179)" stroke-linejoin="round" d="M 2080,2489 L 2080,2339"/>
 <path fill="none" stroke="rgb(179,179,179)" stroke-linejoin="round" d="M 2080,2489 L 2080,2339"/>
 <path fill="none" stroke="rgb(179,179,179)" stroke-linejoin="round" d="M 2663,2489 L 2663,2339"/>
 <path fill="none" stroke="rgb(179,179,179)" stroke-linejoin="round" d="M 2663,2489 L 2663,2339"/>
 <path fill="none" stroke="rgb(179,179,179)" stroke-linejoin="round" d="M 3247,2489 L 3247,2339"/>
 <path fill="none" stroke="rgb(179,179,179)" stroke-linejoin="round" d="M 3247,2489 L 3247,2339"/>
 <path fill="none" stroke="rgb(179,179,179)" stroke-linejoin="round" d="M 3830,2489 L 3830,2339"/>
 <path fill="none" stroke="rgb(179,179,179)" stroke-linejoin="round" d="M 3830,2489 L 3830,2339"/>
 <path fill="none" stroke="rgb(179,179,179)" stroke-linejoin="round" d="M 4414,2489 L 4414,2339"/>
 <path fill="none" stroke="rgb(179,179,179)" stroke-linejoin="round" d="M 4414,2489 L 4414,2339"/>
 <path fill="none" stroke="rgb(179,179,179)" stroke-linejoin="round" d="M 4997,2489 L 4997,2339"/>
 <path fill="none" stroke="rgb(179,179,179)" stroke-linejoin="round" d="M 4997,2489 L 4997,2339"/>
 <path fill="none" stroke="rgb(179,179,179)" stroke-linejoin="round" d="M 5581,2489 L 5581,2339"/>
 <path fill="none" stroke="rgb(179,179,179)" stroke-linejoin="round" d="M 5581,2489 L 5581,2339"/>
 <path fill="none" stroke="rgb(179,179,179)" stroke-linejoin="round" d="M 6165,2489 L 6165,2339"/>
 <path fill="none" stroke="rgb(179,179,179)" stroke-linejoin="round" d="M 6165,2489 L 6165,2339"/>
 <path fill="none" stroke="rgb(179,179,179)" stroke-linejoin="round" d="M 6748,2489 L 6748,2339"/>
 <path fill="none" stroke="rgb(179,179,179)" stroke-linejoin="round" d="M 6748,2489 L 6748,2339"/>
 <path fill="none" stroke="rgb(179,179,179)" stroke-linejoin="round" d="M 7332,2489 L 7332,2339"/>
 <path fill="none" stroke="rgb(179,179,179)" stroke-linejoin="round" d="M 7332,2489 L 7332,2339"/>
 <path fill="none" stroke="rgb(179,179,179)" stroke-linejoin="round" d="M 7915,2489 L 7915,2339"/>
 <path fill="none" stroke="rgb(179,179,179)" stroke-linejoin="round" d="M 7915,2489 L 7915,2339"/>
 <path fill="none" stroke="rgb(179,179,179)" stroke-linejoin="round" d="M 8498,2489 L 8498,2339"/>
 <path fill="none" stroke="rgb(179,179,179)" stroke-linejoin="round" d="M 8498,2489 L 8498,2339"/>
 <path fill="none" stroke="rgb(179,179,179)" stroke-linejoin="round" d="M 9082,2489 L 9082,2339"/>
 <path fill="none" stroke="rgb(179,179,179)" stroke-linejoin="round" d="M 9082,2489 L 9082,2339"/>
 <path fill="none" stroke="rgb(179,179,179)" stroke-linejoin="round" d="M 9665,2489 L 9665,2339"/>
 <path fill="none" stroke="rgb(179,179,179)" stroke-linejoin="round" d="M 9665,2489 L 9665,2339"/>
 <path fill="none" stroke="rgb(179,179,179)" stroke-linejoin="round" d="M 10249,2489 L 10249,2339"/>
 <path fill="none" stroke="rgb(179,179,179)" stroke-linejoin="round" d="M 10249,2489 L 10249,2339"/>
 <path fill="none" stroke="rgb(179,179,179)" stroke-linejoin="round" d="M 10832,2489 L 10832,2339"/>
 <path fill="none" stroke="rgb(179,179,179)" stroke-linejoin="round" d="M 10832,2489 L 10832,2339"/>
 <path fill="none" stroke="rgb(179,179,179)" stroke-linejoin="round" d="M 11416,2489 L 11416,2339"/>
 <path fill="none" stroke="rgb(179,179,179)" stroke-linejoin="round" d="M 11416,2489 L 11416,2339"/>
 <path fill="none" stroke="rgb(179,179,179)" stroke-linejoin="round" d="M 12000,2489 L 12000,2339"/>
 <path fill="none" stroke="rgb(179,179,179)" stroke-linejoin="round" d="M 12000,2489 L 12000,2339"/>
 <path fill="none" stroke="rgb(179,179,179)" stroke-linejoin="round" d="M 2080,2339 L 12000,2339"/>
 <path fill="none" stroke="rgb(179,179,179)" stroke-linejoin="round" d="M 1930,7645 L 2080,7645"/>
 <path fill="none" stroke="rgb(179,179,179)" stroke-linejoin="round" d="M 1930,7645 L 2080,7645"/>
 <path fill="none" stroke="rgb(179,179,179)" stroke-linejoin="round" d="M 1930,7055 L 2080,7055"/>
 <path fill="none" stroke="rgb(179,179,179)" stroke-linejoin="round" d="M 1930,7055 L 2080,7055"/>
 <path fill="none" stroke="rgb(179,179,179)" stroke-linejoin="round" d="M 1930,6465 L 2080,6465"/>
 <path fill="none" stroke="rgb(179,179,179)" stroke-linejoin="round" d="M 1930,6465 L 2080,6465"/>
 <path fill="none" stroke="rgb(179,179,179)" stroke-linejoin="round" d="M 1930,5876 L 2080,5876"/>
 <path fill="none" stroke="rgb(179,179,179)" stroke-linejoin="round" d="M 1930,5876 L 2080,5876"/>
 <path fill="none" stroke="rgb(179,179,179)" stroke-linejoin="round" d="M 1930,5286 L 2080,5286"/>
 <path fill="none" stroke="rgb(179,179,179)" stroke-linejoin="round" d="M 1930,5286 L 2080,5286"/>
 <path fill="none" stroke="rgb(179,179,179)" stroke-linejoin="round" d="M 1930,4696 L 2080,4696"/>
 <path fill="none" stroke="rgb(179,179,179)" stroke-linejoin="round" d="M 1930,4696 L 2080,4696"/>
 <path fill="none" stroke="rgb(179,179,179)" stroke-linejoin="round" d="M 1930,4108 L 2080,4108"/>
 <path fill="none" stroke="rgb(179,179,179)" stroke-linejoin="round" d="M 1930,4108 L 2080,4108"/>
 <path fill="none" stroke="rgb(179,179,179)" stroke-linejoin="round" d="M 1930,3518 L 2080,3518"/>
 <path fill="none" stroke="rgb(179,179,179)" stroke-linejoin="round" d="M 1930,3518 L 2080,3518"/>
 <path fill="none" stroke="rgb(179,179,179)" stroke-linejoin="round" d="M 1930,2928 L 2080,2928"/>
 <path fill="none" stroke="rgb(179,179,179)" stroke-linejoin="round" d="M 1930,2928 L 2080,2928"/>
 <path fill="none" stroke="rgb(179,179,179)" stroke-linejoin="round" d="M 1930,2339 L 2080,2339"/>
 <path fill="none" stroke="rgb(179,179,179)" stroke-linejoin="round" d="M 1930,2339 L 2080,2339"/>
 <path fill="none" stroke="rgb(179,179,179)" stroke-linejoin="round" d="M 2080,7645 L 2080,2339"/>
 <path fill="none" stroke="rgb(0,69,134)" stroke-width="80" stroke-linejoin="round" d="M 2080,2446 L 2109,2449 2138,2452 2167,2455 2196,2458 2225,2461 2255,2464 2284,2467 2313,2470 2342,2473 2371,2475 2400,2478 2430,2481 2459,2484 2488,2487 2517,2490 2546,2493 2576,2496 2605,2499 2634,2502 2663,2505 2692,2508 2721,2511 2751,2514 2780,2517 2809,2520 2838,2523 2867,2526 2897,2529 2926,2532 2955,2536 2984,2539 3013,2542 3042,2545 3072,2548 3101,2551 3130,2554 3159,2558 3188,2561 3217,2564 3247,2567 3276,2570 3305,2574 3334,2577 3363,2580 3393,2583 3422,2586 3451,2590 3480,2593 3509,2596 3538,2600 3568,2603 3597,2606 3626,2610 3655,2613 3684,2616 3714,2620 3743,2623 3772,2626 3801,2630 3830,2633 3859,2637 3889,2640 3918,2643 3947,2647 3976,2650 4005,2654 4035,2657 4064,2661 4093,2664 4122,2668 4151,2671 4180,2675 4210,2679 4239,2682 4268,2686 4297,2689 4326,2693 4355,2697 4385,2700 4414,2704 4443,2708 4472,2711 4501,2715 4531,2719 4560,2722 4589,2726 4618,2730 4647,2734 4676,2737 4706,2741 4735,2745 4764,2749 4793,2753 4822,2756 4852,2760 4881,2764 4910,2768 4939,2772 4968,2776 4997,2780 5027,2784 5056,2788 5085,2792 5114,2796 5143,2800 5173,2804 5202,2808 5231,2812 5260,2816 5289,2820 5318,2824 5348,2828 5377,2832 5406,2836 5435,2841 5464,2845 5493,2849 5523,2853 5552,2858 5581,2862 5610,2866 5639,2870 5669,2875 5698,2879 5727,2883 5756,2888 5785,2892 5814,2896 5844,2901 5873,2905 5902,2910 5931,2914 5960,2919 5990,2923 6019,2928 6048,2932 6077,2937 6106,2942 6135,2946 6165,2951 6194,2956 6223,2960 6252,2965 6281,2970 6311,2974 6340,2979 6369,2984 6398,2989 6427,2994 6456,2999 6486,3003 6515,3008 6544,3013 6573,3018 6602,3023 6631,3028 6661,3033 6690,3038 6719,3043 6748,3049 6777,3054 6807,3059 6836,3064 6865,3069 6894,3074 6923,3080 6952,3085 6982,3090 7011,3096 7040,3101 7069,3106 7098,3112 7128,3117 7157,3123 7186,3128 7215,3134 7244,3140 7273,3145 7303,3151 7332,3156 7361,3162 7390,3168 7419,3174 7449,3179 7478,3185 7507,3191 7536,3197 7565,3203 7594,3209 7624,3215 7653,3221 7682,3227 7711,3233 7740,3239 7769,3246 7799,3252 7828,3258 7857,3264 7886,3271 7915,3277 7945,3284 7974,3290 8002,3296 8031,3303 8060,3310 8089,3316 8119,3323 8148,3330 8177,3336 8206,3343 8235,3350 8265,3357 8294,3364 8323,3371 8352,3378 8381,3385 8410,3392 8440,3399 8469,3407 8498,3414 8527,3421 8556,3429 8586,3436 8615,3444 8644,3451 8673,3459 8702,3466 8731,3474 8761,3482 8790,3490 8819,3498 8848,3506 8877,3514 8906,3522 8936,3530 8965,3538 8994,3546 9023,3555 9052,3563 9082,3572 9111,3580 9140,3589 9169,3598 9198,3607 9227,3615 9257,3624 9286,3633 9315,3643 9344,3652 9373,3661 9403,3670 9432,3680 9461,3689 9490,3699 9519,3709 9548,3719 9578,3728 9607,3738 9636,3748 9665,3759 9694,3769 9724,3779 9753,3790 9782,3800 9811,3811 9840,3821 9869,3832 9899,3843 9928,3855 9957,3866 9986,3877 10015,3889 10044,3900 10074,3912 10103,3924 10132,3937 10161,3949 10190,3962 10220,3974 10249,3987 10278,4000 10307,4014 10336,4027 10365,4041 10395,4054 10424,4069 10453,4083 10482,4097 10511,4112 10541,4126 10570,4141 10599,4156 10628,4171 10657,4187 10686,4202 10716,4218 10745,4234 10774,4250 10803,4266 10832,4282 10862,4298 10891,4315 10920,4332 10949,4349 10978,4366 11007,4384 11037,4402 11066,4420 11095,4440 11124,4459 11153,4480 11182,4500 11212,4521 11241,4544 11270,4567 11299,4591 11328,4616 11358,4642 11387,4668 11416,4696 11445,4725 11474,4755 11503,4786 11533,4818 11562,4850 11591,4884 11620,4918 11649,4953 11679,4988 11708,5024 11737,5061 11766,5098 11795,5136 11824,5174 11854,5212 11883,5250 11912,5289 11941,5328 11970,5367 12000,5406"/>
 <path fill="none" stroke="rgb(255,66,14)" stroke-width="80" stroke-linejoin="round" d="M 2080,2554 L 2109,2560 2138,2566 2167,2572 2196,2577 2225,2583 2255,2589 2284,2595 2313,2601 2342,2607 2371,2612 2400,2618 2430,2624 2459,2630 2488,2636 2517,2642 2546,2648 2576,2654 2605,2659 2634,2665 2663,2671 2692,2677 2721,2684 2751,2690 2780,2696 2809,2702 2838,2708 2867,2714 2897,2720 2926,2726 2955,2733 2984,2739 3013,2745 3042,2751 3072,2758 3101,2764 3130,2770 3159,2777 3188,2783 3217,2789 3247,2796 3276,2802 3305,2809 3334,2815 3363,2821 3393,2828 3422,2834 3451,2841 3480,2848 3509,2854 3538,2861 3568,2867 3597,2874 3626,2881 3655,2887 3684,2894 3714,2901 3743,2907 3772,2914 3801,2921 3830,2928 3859,2935 3889,2942 3918,2948 3947,2955 3976,2962 4005,2969 4035,2976 4064,2983 4093,2990 4122,2997 4151,3004 4180,3012 4210,3019 4239,3026 4268,3033 4297,3040 4326,3047 4355,3055 4385,3062 4414,3069 4443,3077 4472,3084 4501,3091 4531,3099 4560,3106 4589,3114 4618,3121 4647,3129 4676,3136 4706,3144 4735,3151 4764,3159 4793,3167 4822,3174 4852,3182 4881,3190 4910,3198 4939,3205 4968,3213 4997,3221 5027,3229 5056,3237 5085,3245 5114,3253 5143,3261 5173,3269 5202,3277 5231,3285 5260,3293 5289,3301 5318,3310 5348,3318 5377,3326 5406,3334 5435,3343 5464,3351 5493,3360 5523,3368 5552,3377 5581,3385 5610,3394 5639,3402 5669,3411 5698,3419 5727,3428 5756,3437 5785,3446 5814,3454 5844,3463 5873,3472 5902,3481 5931,3490 5960,3499 5990,3508 6019,3517 6048,3526 6077,3536 6106,3545 6135,3554 6165,3563 6194,3573 6223,3582 6252,3591 6281,3601 6311,3610 6340,3620 6369,3630 6398,3639 6427,3649 6456,3659 6486,3668 6515,3678 6544,3688 6573,3698 6602,3708 6631,3718 6661,3728 6690,3738 6719,3748 6748,3759 6777,3769 6807,3779 6836,3790 6865,3800 6894,3810 6923,3821 6952,3832 6982,3842 7011,3853 7040,3864 7069,3874 7098,3885 7128,3896 7157,3907 7186,3918 7215,3929 7244,3941 7273,3952 7303,3963 7332,3974 7361,3986 7390,3997 7419,4009 7449,4020 7478,4032 7507,4044 7536,4056 7565,4068 7594,4079 7624,4092 7653,4104 7682,4116 7711,4128 7740,4140 7769,4153 7799,4165 7828,4178 7857,4190 7886,4203 7915,4216 7945,4229 7974,4241 8002,4254 8031,4268 8060,4281 8089,4294 8119,4307 8148,4321 8177,4334 8206,4348 8235,4362 8265,4375 8294,4389 8323,4403 8352,4417 8381,4432 8410,4446 8440,4460 8469,4475 8498,4489 8527,4503 8556,4518 8586,4533 8615,4548 8644,4563 8673,4578 8702,4593 8731,4609 8761,4624 8790,4640 8819,4656 8848,4672 8877,4688 8906,4704 8936,4721 8965,4737 8994,4754 9023,4770 9052,4787 9082,4804 9111,4821 9140,4838 9169,4856 9198,4873 9227,4891 9257,4909 9286,4927 9315,4945 9344,4963 9373,4982 9403,5001 9432,5019 9461,5039 9490,5058 9519,5077 9548,5097 9578,5117 9607,5137 9636,5157 9665,5178 9694,5198 9724,5219 9753,5240 9782,5262 9811,5283 9840,5305 9869,5327 9899,5350 9928,5372 9957,5395 9986,5418 10015,5441 10044,5464 10074,5488 10103,5512 10132,5536 10161,5560 10190,5585 10220,5610 10249,5635 10278,5660 10307,5686 10336,5711 10365,5737 10395,5764 10424,5791 10453,5818 10482,5846 10511,5874 10541,5903 10570,5932 10599,5962 10628,5992 10657,6023 10686,6055 10716,6087 10745,6120 10774,6154 10803,6189 10832,6224 10862,6260 10891,6298 10920,6335 10949,6374 10978,6413 11007,6453 11037,6494 11066,6535 11095,6576 11124,6618 11153,6661 11182,6704 11212,6747 11241,6790 11270,6834 11299,6878 11328,6922 11358,6966 11387,7010 11416,7055"/>
 <path fill="none" stroke="rgb(255,211,32)" stroke-width="80" stroke-linejoin="round" d="M 2080,2770 L 2109,2782 2138,2793 2167,2805 2196,2816 2225,2828 2255,2840 2284,2851 2313,2863 2342,2875 2371,2886 2400,2898 2430,2910 2459,2921 2488,2933 2517,2945 2546,2957 2576,2969 2605,2980 2634,2992 2663,3004 2692,3016 2721,3029 2751,3041 2780,3053 2809,3065 2838,3077 2867,3089 2897,3102 2926,3114 2955,3127 2984,3139 3013,3152 3042,3164 3072,3177 3101,3189 3130,3202 3159,3215 3188,3227 3217,3240 3247,3253 3276,3266 3305,3279 3334,3291 3363,3304 3393,3317 3422,3330 3451,3343 3480,3357 3509,3370 3538,3383 3568,3396 3597,3409 3626,3423 3655,3436 3684,3450 3714,3463 3743,3476 3772,3490 3801,3504 3830,3517 3859,3531 3889,3545 3918,3558 3947,3572 3976,3586 4005,3600 4035,3614 4064,3628 4093,3642 4122,3656 4151,3670 4180,3685 4210,3699 4239,3713 4268,3727 4297,3742 4326,3756 4355,3771 4385,3785 4414,3800 4443,3815 4472,3829 4501,3844 4531,3859 4560,3874 4589,3889 4618,3904 4647,3919 4676,3934 4706,3949 4735,3964 4764,3979 4793,3995 4822,4010 4852,4026 4881,4041 4910,4057 4939,4072 4968,4088 4997,4104 5027,4119 5056,4135 5085,4151 5114,4167 5143,4183 5173,4199 5202,4215 5231,4232 5260,4248 5289,4264 5318,4281 5348,4297 5377,4314 5406,4330 5435,4347 5464,4364 5493,4381 5523,4398 5552,4415 5581,4432 5610,4449 5639,4466 5669,4483 5698,4499 5727,4517 5756,4534 5785,4552 5814,4569 5844,4587 5873,4605 5902,4623 5931,4641 5960,4659 5990,4677 6019,4695 6048,4713 6077,4732 6106,4750 6135,4769 6165,4787 6194,4806 6223,4825 6252,4843 6281,4862 6311,4881 6340,4900 6369,4920 6398,4939 6427,4958 6456,4978 6486,4997 6515,5017 6544,5037 6573,5057 6602,5076 6631,5096 6661,5117 6690,5137 6719,5157 6748,5178 6777,5198 6807,5219 6836,5240 6865,5260 6894,5281 6923,5302 6952,5324 6982,5345 7011,5366 7040,5388 7069,5409 7098,5431 7128,5453 7157,5475 7186,5497 7215,5519 7244,5542 7273,5564 7303,5587 7332,5609 7361,5632 7390,5655 7419,5678 7449,5702 7478,5725 7507,5748 7536,5772 7565,5796 7594,5820 7624,5844 7653,5868 7682,5892 7711,5917 7740,5941 7769,5966 7799,5991 7828,6016 7857,6041 7886,6067 7915,6092 7945,6117 7974,6143 8002,6169 8031,6195 8060,6221 8089,6248 8119,6274 8148,6301 8177,6328 8206,6355 8235,6382 8265,6410 8294,6438 8323,6466 8352,6494 8381,6522 8410,6551 8440,6580 8469,6610 8498,6639 8527,6669 8556,6699 8586,6729 8615,6760 8644,6791 8673,6822 8702,6853 8731,6884 8761,6916 8790,6948 8819,6980 8848,7012 8877,7044 8906,7076 8936,7108 8965,7141 8994,7173 9023,7206 9052,7238 9082,7271"/>
 <path fill="none" stroke="rgb(87,157,28)" stroke-width="80" stroke-linejoin="round" d="M 2080,5581 L 2109,5581 2138,5581 2167,5581 2196,5581 2225,5581 2255,5581 2284,5581 2313,5581 2342,5581 2371,5581 2400,5581 2430,5581 2459,5581 2488,5581 2517,5581 2546,5581 2576,5581 2605,5581 2634,5581 2663,5581 2692,5581 2721,5581 2751,5581 2780,5581 2809,5581 2838,5581 2867,5581 2897,5581 2926,5581 2955,5581 2984,5581 3013,5581 3042,5581 3072,5581 3101,5581 3130,5581 3159,5581 3188,5581 3217,5581 3247,5581 3276,5581 3305,5581 3334,5581 3363,5581 3393,5581 3422,5581 3451,5581 3480,5581 3509,5581 3538,5581 3568,5581 3597,5581 3626,5581 3655,5581 3684,5581 3714,5581 3743,5581 3772,5581 3801,5581 3830,5581 3859,5581 3889,5581 3918,5581 3947,5581 3976,5581 4005,5581 4035,5581 4064,5581 4093,5581 4122,5581 4151,5581 4180,5581 4210,5581 4239,5581 4268,5581 4297,5581 4326,5581 4355,5581 4385,5581 4414,5581 4443,5581 4472,5581 4501,5581 4531,5581 4560,5581 4589,5581 4618,5581 4647,5581 4676,5581 4706,5581 4735,5581 4764,5581 4793,5581 4822,5581 4852,5581 4881,5581 4910,5581 4939,5581 4968,5581 4997,5581 5027,5581 5056,5581 5085,5581 5114,5581 5143,5581 5173,5581 5202,5581 5231,5581 5260,5581 5289,5581 5318,5581 5348,5581 5377,5581 5406,5581 5435,5581 5464,5581 5493,5581 5523,5581 5552,5581 5581,5581 5610,5581 5639,5581 5669,5581 5698,5581 5727,5581 5756,5581 5785,5581 5814,5581 5844,5581 5873,5581 5902,5581 5931,5581 5960,5581 5990,5581 6019,5581 6048,5581 6077,5581 6106,5581 6135,5581 6165,5581 6194,5581 6223,5581 6252,5581 6281,5581 6311,5581 6340,5581 6369,5581 6398,5581 6427,5581 6456,5581 6486,5581 6515,5581 6544,5581 6573,5581 6602,5581 6631,5581 6661,5581 6690,5581 6719,5581 6748,5581 6777,5581 6807,5581 6836,5581 6865,5581 6894,5581 6923,5581 6952,5581 6982,5581 7011,5581 7040,5581 7069,5581 7098,5581 7128,5581 7157,5581 7186,5581 7215,5581 7244,5581 7273,5581 7303,5581 7332,5581 7361,5581 7390,5581 7419,5581 7449,5581 7478,5581 7507,5581 7536,5581 7565,5581 7594,5581 7624,5581 7653,5581 7682,5581 7711,5581 7740,5581 7769,5581 7799,5581 7828,5581 7857,5581 7886,5581 7915,5581 7945,5581 7974,5581 8002,5581 8031,5581 8060,5581 8089,5581 8119,5581 8148,5581 8177,5581 8206,5581 8235,5581 8265,5581 8294,5581 8323,5581 8352,5581 8381,5581 8410,5581 8440,5581 8469,5581 8498,5581 8527,5581 8556,5581 8586,5581 8615,5581 8644,5581 8673,5581 8702,5581 8731,5581 8761,5581 8790,5581 8819,5581 8848,5581 8877,5581 8906,5581 8936,5581 8965,5581 8994,5581 9023,5581 9052,5581 9082,5581 9111,5581 9140,5581 9169,5581 9198,5581 9227,5581 9257,5581 9286,5581 9315,5581 9344,5581 9373,5581 9403,5581 9432,5581 9461,5581 9490,5581 9519,5581 9548,5581 9578,5581 9607,5581 9636,5581 9665,5581 9694,5581 9724,5581 9753,5581 9782,5581 9811,5581 9840,5581 9869,5581 9899,5581 9928,5581 9957,5581 9986,5581 10015,5581 10044,5581 10074,5581 10103,5581 10132,5581 10161,5581 10190,5581 10220,5581 10249,5581 10278,5581 10307,5581 10336,5581 10365,5581 10395,5581 10424,5581 10453,5581 10482,5581 10511,5581 10541,5581 10570,5581 10599,5581 10628,5581 10657,5581 10686,5581 10716,5581 10745,5581 10774,5581 10803,5581 10832,5581 10862,5581 10891,5581 10920,5581 10949,5581 10978,5581 11007,5581 11037,5581 11066,5581 11095,5581 11124,5581 11153,5581 11182,5581 11212,5581 11241,5581 11270,5581 11299,5581 11328,5581 11358,5581 11387,5581 11416,5581 11445,5581 11474,5581 11503,5581 11533,5581 11562,5581 11591,5581 11620,5581 11649,5581 11679,5581 11708,5581 11737,5581 11766,5581 11795,5581 11824,5581 11854,5581 11883,5581 11912,5581 11941,5581 11970,5581 12000,5581"/>
 <text class="TextShape" transform="translate(1323,3651) rotate(-44.9) translate(-1323,-3651)"><tspan class="TextParagraph" font-family="Liberation Sans, sans-serif" font-size="353px" font-weight="400"><tspan class="TextPosition" x="1323" y="3651"><tspan fill="rgb(0,0,0)" stroke="none">90.00%</tspan></tspan></tspan></text>
 <text class="TextShape" transform="translate(3073,3651) rotate(-44.9) translate(-3073,-3651)"><tspan class="TextParagraph" font-family="Liberation Sans, sans-serif" font-size="353px" font-weight="400"><tspan class="TextPosition" x="3073" y="3651"><tspan fill="rgb(0,0,0)" stroke="none">75.00%</tspan></tspan></tspan></text>
 <text class="TextShape" transform="translate(5991,3651) rotate(-44.9) translate(-5991,-3651)"><tspan class="TextParagraph" font-family="Liberation Sans, sans-serif" font-size="353px" font-weight="400"><tspan class="TextPosition" x="5991" y="3651"><tspan fill="rgb(0,0,0)" stroke="none">50.00%</tspan></tspan></tspan></text>
 <text class="TextShape" transform="translate(8909,3651) rotate(-44.9) translate(-8909,-3651)"><tspan class="TextParagraph" font-family="Liberation Sans, sans-serif" font-size="353px" font-weight="400"><tspan class="TextPosition" x="8909" y="3651"><tspan fill="rgb(0,0,0)" stroke="none">25.00%</tspan></tspan></tspan></text>
 <text class="TextShape" transform="translate(10660,3651) rotate(-44.9) translate(-10660,-3651)"><tspan class="TextParagraph" font-family="Liberation Sans, sans-serif" font-size="353px" font-weight="400"><tspan class="TextPosition" x="10660" y="3651"><tspan fill="rgb(0,0,0)" stroke="none">10.00%</tspan></tspan></tspan></text>
 <text class="TextShape" transform="translate(11378,3517) rotate(-44.9) translate(-11378,-3517)"><tspan class="TextParagraph" font-family="Liberation Sans, sans-serif" font-size="353px" font-weight="400"><tspan class="TextPosition" x="11378" y="3517"><tspan fill="rgb(0,0,0)" stroke="none">5.00%</tspan></tspan></tspan></text>
 <text class="TextShape"><tspan class="TextParagraph" font-family="Liberation Sans, sans-serif" font-size="353px" font-weight="400"><tspan class="TextPosition" x="1322" y="7763"><tspan fill="rgb(0,0,0)" stroke="none">-18</tspan></tspan></tspan></text>
 <text class="TextShape"><tspan class="TextParagraph" font-family="Liberation Sans, sans-serif" font-size="353px" font-weight="400"><tspan class="TextPosition" x="1322" y="7173"><tspan fill="rgb(0,0,0)" stroke="none">-16</tspan></tspan></tspan></text>
 <text class="TextShape"><tspan class="TextParagraph" font-family="Liberation Sans, sans-serif" font-size="353px" font-weight="400"><tspan class="TextPosition" x="1322" y="6583"><tspan fill="rgb(0,0,0)" stroke="none">-14</tspan></tspan></tspan></text>
 <text class="TextShape"><tspan class="TextParagraph" font-family="Liberation Sans, sans-serif" font-size="353px" font-weight="400"><tspan class="TextPosition" x="1322" y="5994"><tspan fill="rgb(0,0,0)" stroke="none">-12</tspan></tspan></tspan></text>
 <text class="TextShape"><tspan class="TextParagraph" font-family="Liberation Sans, sans-serif" font-size="353px" font-weight="400"><tspan class="TextPosition" x="1322" y="5404"><tspan fill="rgb(0,0,0)" stroke="none">-10</tspan></tspan></tspan></text>
 <text class="TextShape"><tspan class="TextParagraph" font-family="Liberation Sans, sans-serif" font-size="353px" font-weight="400"><tspan class="TextPosition" x="1512" y="4814"><tspan fill="rgb(0,0,0)" stroke="none">-8</tspan></tspan></tspan></text>
 <text class="TextShape"><tspan class="TextParagraph" font-family="Liberation Sans, sans-serif" font-size="353px" font-weight="400"><tspan class="TextPosition" x="1512" y="4225"><tspan fill="rgb(0,0,0)" stroke="none">-6</tspan></tspan></tspan></text>
 <text class="TextShape"><tspan class="TextParagraph" font-family="Liberation Sans, sans-serif" font-size="353px" font-weight="400"><tspan class="TextPosition" x="1512" y="3635"><tspan fill="rgb(0,0,0)" stroke="none">-4</tspan></tspan></tspan></text>
 <text class="TextShape"><tspan class="TextParagraph" font-family="Liberation Sans, sans-serif" font-size="353px" font-weight="400"><tspan class="TextPosition" x="1512" y="3045"><tspan fill="rgb(0,0,0)" stroke="none">-2</tspan></tspan></tspan></text>
 <text class="TextShape"><tspan class="TextParagraph" font-family="Liberation Sans, sans-serif" font-size="353px" font-weight="400"><tspan class="TextPosition" x="1639" y="2456"><tspan fill="rgb(0,0,0)" stroke="none">0</tspan></tspan></tspan></text>
 <text class="TextShape"><tspan class="TextParagraph" font-family="Liberation Sans, sans-serif" font-size="459px" font-weight="400"><tspan class="TextPosition" x="6751" y="877"><tspan fill="rgb(0,0,0)" stroke="none">Failure Rate</tspan></tspan></tspan></text>
 <text class="TextShape"><tspan class="TextParagraph" font-family="Liberation Sans, sans-serif" font-size="388px" font-weight="400"><tspan class="TextPosition" x="5576" y="1756"><tspan fill="rgb(0,0,0)" stroke="none">KLM Get Log10 Failure Rate</tspan></tspan></tspan></text>
 <path fill="none" stroke="rgb(0,69,134)" stroke-width="80" stroke-linejoin="round" d="M 12802,3743 L 13602,3743"/>
 <path fill="none" stroke="rgb(255,66,14)" stroke-width="80" stroke-linejoin="round" d="M 12802,4247 L 13602,4247"/>
 <path fill="none" stroke="rgb(255,211,32)" stroke-width="80" stroke-linejoin="round" d="M 12802,4750 L 13602,4750"/>
 <path fill="none" stroke="rgb(87,157,28)" stroke-width="80" stroke-linejoin="round" d="M 12802,5254 L 13602,5254"/>
 <text class="TextShape"><tspan class="TextParagraph" font-family="Liberation Sans, sans-serif" font-size="353px" font-weight="400"><tspan class="TextPosition" x="13702" y="3860"><tspan fill="rgb(0,0,0)" stroke="none">8 Iterations</tspan></tspan></tspan></text>
 <text class="TextShape"><tspan class="TextParagraph" font-family="Liberation Sans, sans-serif" font-size="353px" font-weight="400"><tspan class="TextPosition" x="13702" y="4364"><tspan fill="rgb(0,0,0)" stroke="none">16 Iterations</tspan></tspan></tspan></text>
 <text class="TextShape"><tspan class="TextParagraph" font-family="Liberation Sans, sans-serif" font-size="353px" font-weight="400"><tspan class="TextPosition" x="13702" y="4867"><tspan fill="rgb(0,0,0)" stroke="none">32 Iterations</tspan></tspan></tspan></text>
 <text class="TextShape"><tspan class="TextParagraph" font-family="Liberation Sans, sans-serif" font-size="353px" font-weight="400"><tspan class="TextPosition" x="13702" y="5371"><tspan fill="rgb(0,0,0)" stroke="none">UBER Limit</tspan></tspan></tspan></text>
 <text class="TextShape"><tspan class="TextParagraph" font-family="Liberation Sans, sans-serif" font-size="318px" font-weight="400"><tspan class="TextPosition" x="6283" y="8420"><tspan fill="rgb(0,0,0)" stroke="none">Fill Rate</tspan></tspan></tspan></text>
 <text class="TextShape" transform="translate(842,6294) rotate(-90) translate(-842,-6294)"><tspan class="TextParagraph" font-family="Liberation Sans, sans-serif" font-size="318px" font-weight="400"><tspan class="TextPosition" x="842" y="6294"><tspan fill="rgb(0,0,0)" stroke="none">Log10 Failure Rate</tspan></tspan></tspan></text>
</svg>