<svg xmlns="http://www.w3.org/2000/svg" viewBox="0 0 550 400"><path fill="#009444" d="m152 162-43-61a250 250 0 0 0-84 182h63a155 155 0 0 1 46-105 157 157 0 0 1 18-16Z"/><path fill="#f7941e" d="m319 152 29-47 28-46a250 250 0 0 0-258 35l43 62a156 156 0 0 1 158-4Z"/><path fill="#ed1c24" d="m386 64-58 93a156 156 0 0 1 72 126h125A251 251 0 0 0 386 64Z"/><path fill="#603913" d="M495 147a262 262 0 0 0-108-95A262 262 0 0 0 13 288a6 6 0 0 0 6 6h75a6 6 0 0 0 5-6 144 144 0 0 1 43-102 147 147 0 0 1 20-17 6 6 0 0 0 1-1 145 145 0 0 1 155-4 145 145 0 0 1 71 124 6 6 0 0 0 5 6h137a6 6 0 0 0 6-6 261 261 0 0 0-42-141Zm-95 136a156 156 0 0 0-72-126l59-93a251 251 0 0 1 138 219Zm-375 0a250 250 0 0 1 84-182l43 62a157 157 0 0 0-19 15 155 155 0 0 0-45 105Zm93-189a251 251 0 0 1 258-35l-28 46-29 47a156 156 0 0 0-158 4Z"/><path fill="#d1d2d4" d="M428 168a8 8 0 0 0-5-2 8 8 0 0 0-3 1l-129 52a8 8 0 0 0-3 13l25 24 7-7a19 19 0 0 1 28 27l-8 8 25 25a8 8 0 0 0 13-3l52-129a8 8 0 0 0-2-9Z"/><path fill="#603913" d="M436 160a19 19 0 0 0-21-4l-129 52a19 19 0 0 0-6 32l25 24-11 11a26 26 0 0 0-19 8l-49 49a13 13 0 0 0 0 19l18 18a13 13 0 0 0 19 0l50-49a26 26 0 0 0 7-16l12-12 25 25a19 19 0 0 0 14 5 19 19 0 0 0 4 0 19 19 0 0 0 14-12l52-129a19 19 0 0 0-5-21Zm-64 151a8 8 0 0 1-7-2l-25-25 8-8a19 19 0 0 0-28-27l-7 7-25-24a8 8 0 0 1 3-13l129-52a8 8 0 0 1 3-1 8 8 0 0 1 7 11l-52 129a8 8 0 0 1-6 5Zm-67 1-50 50a2 2 0 0 1-3 0l-18-19a2 2 0 0 1 0-3l50-49a15 15 0 0 1 21 21Zm8-29a27 27 0 0 0-6-5l21-21a8 8 0 0 1 12 11l-22 22a26 26 0 0 0-5-7Z"/><path fill="#d1d2d4" d="M340 268a8 8 0 0 0-12-11l-21 21a26 26 0 0 1 11 12Z"/><path fill="#ed1c24" d="M305 291a15 15 0 0 0-22 0l-49 49a2 2 0 0 0 0 3l18 18a2 2 0 0 0 3 1l50-50a15 15 0 0 0 0-21Z"/></svg>