<svg xmlns="http://www.w3.org/2000/svg" viewBox="0 0 550 400"><path fill="#009444" d="m151.8 162.4-42.9-61.5a250 250 0 0 0-84.3 181.8H88a155 155 0 0 1 45.6-104.6 157.4 157.4 0 0 1 18.3-15.7Z"/><path fill="#f7941e" d="m318.8 151.5 28.9-46.5 28.5-45.8a250.1 250.1 0 0 0-258.6 34.4L161 156a156.3 156.3 0 0 1 157.7-4.5Z"/><path fill="#ed1c24" d="m386.4 64-58 93.3a155.9 155.9 0 0 1 71.3 125.4h125.7a250.5 250.5 0 0 0-139-218.6Z"/><path fill="#603913" d="M495 146.5a262.4 262.4 0 0 0-108.3-94.8A261.8 261.8 0 0 0 13.3 288.4a5.6 5.6 0 0 0 5.6 5.6h74.6a5.6 5.6 0 0 0 5.6-5.6A143.8 143.8 0 0 1 141.5 186a146.5 146.5 0 0 1 20.8-17.3 6.2 6.2 0 0 0 .6-.3l.4-.3a144.9 144.9 0 0 1 154.5-4.1 144.7 144.7 0 0 1 70.7 124.4 5.6 5.6 0 0 0 5.7 5.6h136.9a5.6 5.6 0 0 0 5.6-5.6A260.8 260.8 0 0 0 495 146.5Zm-95.3 136.2a155.9 155.9 0 0 0-71.2-125.4l58-93.3a250.5 250.5 0 0 1 138.9 218.7Zm-375 0A250 250 0 0 1 108.8 101l42.9 61.5a157.4 157.4 0 0 0-18.3 15.7A155 155 0 0 0 88 282.6Zm92.9-189a250.6 250.6 0 0 1 258.6-34.5L347.7 105l-29 46.5a156.3 156.3 0 0 0-157.6 4.5Z"/><path fill="#d1d2d4" d="M428.2 168.3a7.8 7.8 0 0 0-5.5-2.3 8.2 8.2 0 0 0-3.1.6l-129 52a8 8 0 0 0-2.7 13l24.8 24.8 7.8-7.7a19.4 19.4 0 0 1 27.4 27.4l-7.7 7.7 24.8 24.8a8 8 0 0 0 13-2.6l52-129a7.8 7.8 0 0 0-1.8-8.7Z"/><path fill="#603913" d="M436.2 160.4a19 19 0 0 0-20.8-4.3l-129 52a19.3 19.3 0 0 0-6.4 31.5l24.8 24.8L294 275a26.2 26.2 0 0 0-18.7 7.7L226 332.2a13.4 13.4 0 0 0 0 18.9l18.4 18.3a13.3 13.3 0 0 0 18.8 0l49.6-49.5a26.2 26.2 0 0 0 7.5-16.2l12-11.9 24.7 24.8a19.2 19.2 0 0 0 13.6 5.6 18.8 18.8 0 0 0 3.9-.3 19.2 19.2 0 0 0 14-11.7l52-129a19 19 0 0 0-4.2-20.8Zm-64 150.4a7.9 7.9 0 0 1-7.2-2.1l-24.8-24.8 7.7-7.8a19.4 19.4 0 0 0-27.4-27.4l-7.8 7.7-24.8-24.8a8 8 0 0 1 2.7-13l129-52a8.2 8.2 0 0 1 3-.6 8 8 0 0 1 7.4 11l-52 129a7.9 7.9 0 0 1-5.9 4.8Zm-67.5 1.1-49.5 49.6a2 2 0 0 1-3 0L234 343a2 2 0 0 1 0-2.9l49.5-49.5a15 15 0 0 1 21.3 21.2Zm8-29.2a26.5 26.5 0 0 0-5.8-4.4l21.6-21.6a8.1 8.1 0 0 1 11.4 11.5l-22 22a26.3 26.3 0 0 0-5.2-7.5Z"/><path fill="#d1d2d4" d="M339.9 268.2a8.1 8.1 0 0 0-11.5-11.5l-21.6 21.6a26.2 26.2 0 0 1 11 11.8Z"/><path fill="#ed1c24" d="M304.7 290.7a15 15 0 0 0-21.3 0L234 340.2a2 2 0 0 0 0 3l18.4 18.3a2 2 0 0 0 2.9 0l49.5-49.6a15 15 0 0 0 0-21.2Z"/></svg>