<svg xmlns="http://www.w3.org/2000/svg" viewBox="0 0 800 300"><path fill="#231f20" d="M113 93a25 25 0 0 1 2-10 27 27 0 0 1 14-15 25 25 0 0 1 10-2 26 26 0 0 1 11 2 27 27 0 0 1 14 15 26 26 0 0 1 2 10v81q0 3 2 4a6 6 0 0 0 7 0q2-1 2-4V93a36 36 0 0 0-3-15 38 38 0 0 0-20-20 37 37 0 0 0-15-3 36 36 0 0 0-18 5 43 43 0 0 0-8 6 37 37 0 0 0-6 7 39 39 0 0 0-6-7 38 38 0 0 0-17-10 38 38 0 0 0-9-1 37 37 0 0 0-27 11 38 38 0 0 0-8 12 36 36 0 0 0-3 15v81q0 3 2 4a6 6 0 0 0 4 2 6 6 0 0 0 3-2q2-1 2-4V93a26 26 0 0 1 2-10 27 27 0 0 1 6-9 27 27 0 0 1 9-6 27 27 0 0 1 20 0 28 28 0 0 1 9 6 29 29 0 0 1 5 9 26 26 0 0 1 2 10v81l2 4a6 6 0 0 0 4 2 6 6 0 0 0 4-2q2-1 2-4Zm144 82-2-4a6 6 0 0 0-4-2 52 52 0 0 1-37-15 55 55 0 0 1-10-14 48 48 0 0 1-5-17h52a6 6 0 0 0 5-2 6 6 0 0 0 0-7 6 6 0 0 0-5-2h-52a50 50 0 0 1 5-17 53 53 0 0 1 27-26 50 50 0 0 1 20-4 6 6 0 0 0 5-2 6 6 0 0 0 1-3 6 6 0 0 0-2-4 6 6 0 0 0-4-2 62 62 0 0 0-25 5 64 64 0 0 0-20 14 61 61 0 0 0-8 9 62 62 0 0 0-5 11 64 64 0 0 0-4 12 63 63 0 0 0-1 12 61 61 0 0 0 5 25 64 64 0 0 0 13 20 63 63 0 0 0 20 14 62 62 0 0 0 25 5 6 6 0 0 0 4-2 5 5 0 0 0 2-4Zm80-4-33-46a32 32 0 0 0 12-4 36 36 0 0 0 17-18 33 33 0 0 0 3-13 34 34 0 0 0-3-13 37 37 0 0 0-7-12 36 36 0 0 0-12-7 34 34 0 0 0-13-3h-28a5 5 0 0 0-2 1 6 6 0 0 0-2 1 7 7 0 0 0-1 2 4 4 0 0 0-1 2v113q0 3 2 4a6 6 0 0 0 4 2 6 6 0 0 0 4-2l2-4v-49h11l38 52a6 6 0 0 0 2 2 6 6 0 0 0 2 1 6 6 0 0 0 4-2 5 5 0 0 0 2-4v-1a6 6 0 0 0-1-2Zm-58-57V66h22a23 23 0 0 1 9 2 25 25 0 0 1 8 5 26 26 0 0 1 5 8 23 23 0 0 1 2 9l-2 9a25 25 0 0 1-5 8 23 23 0 0 1-8 5 23 23 0 0 1-9 2Zm189 20a62 62 0 0 0 2-17l-2-17a66 66 0 0 0-6-15 68 68 0 0 0-10-12 63 63 0 0 0-13-10 68 68 0 0 0-15-7 64 64 0 0 0-34 0 66 66 0 0 0-15 7 62 62 0 0 0-13 10 65 65 0 0 0-10 12 62 62 0 0 0-6 15 64 64 0 0 0 0 34 62 62 0 0 0 6 15 64 64 0 0 0 110 0 65 65 0 0 0 6-15Zm-11-3a55 55 0 0 1-5 13 54 54 0 0 1-8 10 50 50 0 0 1-11 8 51 51 0 0 1-26 7 51 51 0 0 1-14-1 50 50 0 0 1-12-6 49 49 0 0 1-11-8 52 52 0 0 1-8-10 51 51 0 0 1-5-13 49 49 0 0 1-2-14 49 49 0 0 1 2-14 53 53 0 0 1 13-23 53 53 0 0 1 11-8 55 55 0 0 1 12-5 51 51 0 0 1 14-2 52 52 0 0 1 14 2 57 57 0 0 1 12 5 54 54 0 0 1 19 19 57 57 0 0 1 5 12 51 51 0 0 1 2 14Zm44 47a6 6 0 0 0 7 0l2-4V66h32a6 6 0 0 0 5-1 6 6 0 0 0 1-4l-1-4a6 6 0 0 0-5-2h-75a5 5 0 0 0-6 6 6 6 0 0 0 2 4 5 5 0 0 0 4 1h32v108l2 4Zm162-44a61 61 0 0 0 2-17l-2-17a66 66 0 0 0-6-15 67 67 0 0 0-10-12 63 63 0 0 0-13-10 68 68 0 0 0-15-7 64 64 0 0 0-34 0 66 66 0 0 0-15 7 62 62 0 0 0-13 10 65 65 0 0 0-10 12 61 61 0 0 0-6 15 64 64 0 0 0 0 34 61 61 0 0 0 6 15 62 62 0 0 0 23 23 63 63 0 0 0 77-10 62 62 0 0 0 10-13 65 65 0 0 0 6-15Zm-11-3a55 55 0 0 1-5 13 54 54 0 0 1-8 10 50 50 0 0 1-11 8 51 51 0 0 1-26 7 51 51 0 0 1-14-1 50 50 0 0 1-12-6 49 49 0 0 1-11-8 51 51 0 0 1-8-10 51 51 0 0 1-5-13 49 49 0 0 1-2-14 49 49 0 0 1 2-14 52 52 0 0 1 5-12 52 52 0 0 1 8-11 53 53 0 0 1 11-8 55 55 0 0 1 12-5 51 51 0 0 1 14-2 52 52 0 0 1 14 2 57 57 0 0 1 12 5 54 54 0 0 1 19 19 57 57 0 0 1 5 12 52 52 0 0 1 2 14Zm108-49a45 45 0 0 0-10-14 45 45 0 0 0-14-9 43 43 0 0 0-17-4 42 42 0 0 0-16 4 44 44 0 0 0-14 9 44 44 0 0 0-10 14 42 42 0 0 0-3 17v75q0 3 2 4a6 6 0 0 0 3 2 6 6 0 0 0 4-2q2-1 2-4V99a31 31 0 0 1 3-13 33 33 0 0 1 17-17 31 31 0 0 1 12-3 31 31 0 0 1 13 3 34 34 0 0 1 10 7 34 34 0 0 1 7 10 32 32 0 0 1 3 13v75q0 3 2 4a6 6 0 0 0 3 2 6 6 0 0 0 4-2q2-1 2-4V99a42 42 0 0 0-3-17ZM64 224a14 14 0 0 0-2-3 14 14 0 0 0-3-2l-13-7a4 4 0 0 1-2-1 7 7 0 0 1 0-3 6 6 0 0 1 0-3 5 5 0 0 1 1-2 6 6 0 0 1 2-1 8 8 0 0 1 3 0h10a3 3 0 0 0 3-1 3 3 0 0 0 1-3 3 3 0 0 0-1-2 3 3 0 0 0-3-1H50a14 14 0 0 0-5 1 13 13 0 0 0-4 3 12 12 0 0 0-4 9 14 14 0 0 0 0 3 12 12 0 0 0 1 3 10 10 0 0 0 2 2 11 11 0 0 0 3 2l13 7a7 7 0 0 1 3 3 7 7 0 0 1 1 3 7 7 0 0 1-1 4 7 7 0 0 1-2 2 8 8 0 0 1-3 2 9 9 0 0 1-3 0H40a3 3 0 0 0-2 1 3 3 0 0 0-1 2 3 3 0 0 0 1 2 3 3 0 0 0 2 2h11a16 16 0 0 0 6-1 15 15 0 0 0 5-3 14 14 0 0 0 3-5 13 13 0 0 0 1-5v-4a14 14 0 0 0-2-4Zm35-24a15 15 0 0 0-5-4 14 14 0 0 0-6-1H78a3 3 0 0 0-2 1 3 3 0 0 0-1 0 4 4 0 0 0 0 1 3 3 0 0 0-1 2v43a3 3 0 0 0 1 3 3 3 0 0 0 3 1 3 3 0 0 0 2-1 3 3 0 0 0 1-3v-17h7a14 14 0 0 0 6-2 15 15 0 0 0 5-3 15 15 0 0 0 3-4 15 15 0 0 0 1-6l-1-6a15 15 0 0 0-3-4Zm-3 13a8 8 0 0 1-2 3 8 8 0 0 1-3 1 8 8 0 0 1-3 1h-7v-16h7a8 8 0 0 1 3 0 9 9 0 0 1 3 2 9 9 0 0 1 2 3 8 8 0 0 1 0 3Zm27-6a19 19 0 0 1 6-4 18 18 0 0 1 8-2 3 3 0 0 0 3-3 3 3 0 0 0-1-2 3 3 0 0 0-2-1 25 25 0 0 0-10 2 26 26 0 0 0-8 5 25 25 0 0 0-3 4 25 25 0 0 0-4 9 26 26 0 0 0-1 5 25 25 0 0 0 2 10 26 26 0 0 0 6 9 25 25 0 0 0 18 7 3 3 0 0 0 2-1 3 3 0 0 0 1-2v-2h-1a3 3 0 0 0-2-2 19 19 0 0 1-14-5 20 20 0 0 1-3-5 17 17 0 0 1-2-5h19a3 3 0 0 0 2-1 3 3 0 0 0-2-6h-19a18 18 0 0 1 2-5 20 20 0 0 1 3-5Zm37 0a19 19 0 0 1 7-4 18 18 0 0 1 7-2 3 3 0 0 0 3-3 3 3 0 0 0 0-2 3 3 0 0 0-3-1 25 25 0 0 0-10 2 26 26 0 0 0-8 5 25 25 0 0 0-3 4 25 25 0 0 0-4 9 26 26 0 0 0-1 5 25 25 0 0 0 2 10 26 26 0 0 0 6 9 25 25 0 0 0 18 7 3 3 0 0 0 2-1 3 3 0 0 0 1-2v-2h-1a3 3 0 0 0-2-2 19 19 0 0 1-14-5 20 20 0 0 1-3-5 17 17 0 0 1-2-5h19a3 3 0 0 0 2-1 3 3 0 0 0-2-6h-19a18 18 0 0 1 2-5 20 20 0 0 1 3-5Zm61 1a26 26 0 0 0-4-5 25 25 0 0 0-11-7 25 25 0 0 0-7-1h-10a3 3 0 0 0-1 1 3 3 0 0 0-1 0 4 4 0 0 0-1 1 3 3 0 0 0 0 2v43a3 3 0 0 0 0 2 3 3 0 0 0 0 1 3 3 0 0 0 1 0 3 3 0 0 0 2 1h10a25 25 0 0 0 13-4 25 25 0 0 0 5-4 26 26 0 0 0 4-5 27 27 0 0 0 2-6 25 25 0 0 0 1-7l-1-6a27 27 0 0 0-2-6Zm-4 17a19 19 0 0 1-5 9 18 18 0 0 1-4 2 19 19 0 0 1-4 2 18 18 0 0 1-5 1h-7v-37h7a18 18 0 0 1 5 0 18 18 0 0 1 8 5 20 20 0 0 1 3 4 19 19 0 0 1 2 5 18 18 0 0 1 1 4Zm71-29a3 3 0 0 0-4 0 3 3 0 0 0-2 3v29a11 11 0 0 1 0 4 12 12 0 0 1-7 6 11 11 0 0 1-14-6 11 11 0 0 1-1-4v-29a3 3 0 0 0-1-3 3 3 0 0 0-5 0 3 3 0 0 0-1 3v29a17 17 0 0 0 2 7 18 18 0 0 0 9 9 17 17 0 0 0 7 2 17 17 0 0 0 7-2 18 18 0 0 0 6-4 18 18 0 0 0 4-5 17 17 0 0 0 1-7v-29a3 3 0 0 0-1-3Zm34 4a15 15 0 0 0-5-4 14 14 0 0 0-6-1h-11a3 3 0 0 0-1 1 3 3 0 0 0-1 0 4 4 0 0 0-1 1 3 3 0 0 0 0 2v43a3 3 0 0 0 1 3 3 3 0 0 0 2 1 3 3 0 0 0 3-1 3 3 0 0 0 1-3v-17h7a14 14 0 0 0 6-2 15 15 0 0 0 5-3 15 15 0 0 0 3-4 14 14 0 0 0 1-6l-1-6a15 15 0 0 0-3-4Zm-3 13a9 9 0 0 1-2 3 8 8 0 0 1-3 1 8 8 0 0 1-3 1h-7v-16h7a8 8 0 0 1 3 0 9 9 0 0 1 3 2 9 9 0 0 1 2 3 8 8 0 0 1 0 3Zm69-17a3 3 0 0 0-4 0 3 3 0 0 0-1 3v8a11 11 0 0 1-1 4 12 12 0 0 1-2 4 11 11 0 0 1-4 2 10 10 0 0 1-8 0 11 11 0 0 1-4-2 11 11 0 0 1-2-4 10 10 0 0 1-1-4v-8a3 3 0 0 0-1-3 3 3 0 0 0-4 0 3 3 0 0 0-1 3v8a17 17 0 0 0 1 6 17 17 0 0 0 3 6 18 18 0 0 0 5 3 16 16 0 0 0 5 2v18a3 3 0 0 0 1 3 3 3 0 0 0 4 0 3 3 0 0 0 1-3v-18a17 17 0 0 0 5-2 18 18 0 0 0 5-3 17 17 0 0 0 3-6 17 17 0 0 0 2-6v-8a3 3 0 0 0-2-3Zm56 12a28 28 0 0 0-4-6 26 26 0 0 0-5-4 26 26 0 0 0-6-2 26 26 0 0 0-14 0 27 27 0 0 0-6 2 25 25 0 0 0-5 4 27 27 0 0 0-4 6 25 25 0 0 0-3 6 26 26 0 0 0-1 6 26 26 0 0 0 39 22 26 26 0 0 0 5-4 25 25 0 0 0 4-5 27 27 0 0 0 3-6 25 25 0 0 0 1-7l-1-6a27 27 0 0 0-3-6Zm-4 17a20 20 0 0 1-2 5 20 20 0 0 1-3 4 18 18 0 0 1-3 3 19 19 0 0 1-15 2 18 18 0 0 1-5-2 18 18 0 0 1-3-3 19 19 0 0 1-3-4 18 18 0 0 1-2-5 18 18 0 0 1-1-5 18 18 0 0 1 1-5 19 19 0 0 1 5-8 20 20 0 0 1 3-3 20 20 0 0 1 5-2 18 18 0 0 1 5-1 19 19 0 0 1 5 1 21 21 0 0 1 5 2 20 20 0 0 1 3 3 20 20 0 0 1 3 4 21 21 0 0 1 2 4 19 19 0 0 1 1 5Zm51-29a3 3 0 0 0-5 0 3 3 0 0 0-1 3v29a11 11 0 0 1-1 4 12 12 0 0 1-2 4 12 12 0 0 1-4 2 11 11 0 0 1-15-6 11 11 0 0 1-1-4v-29a3 3 0 0 0-1-3 3 3 0 0 0-4 0 3 3 0 0 0-1 3v29a17 17 0 0 0 1 7 18 18 0 0 0 10 9 18 18 0 0 0 14 0 18 18 0 0 0 9-9 17 17 0 0 0 2-7v-29a3 3 0 0 0-1-3Zm38 44-12-16a14 14 0 0 0 3-1 15 15 0 0 0 7-8 14 14 0 0 0 1-5 14 14 0 0 0-1-6 15 15 0 0 0-3-4 15 15 0 0 0-5-4 14 14 0 0 0-5-1h-11a3 3 0 0 0-1 1 3 3 0 0 0-1 0 4 4 0 0 0-1 1 3 3 0 0 0 0 2v43a3 3 0 0 0 1 3 3 3 0 0 0 2 1 3 3 0 0 0 2-1 3 3 0 0 0 1-3v-17h3l14 19a3 3 0 0 0 2 1 3 3 0 0 0 3 0 3 3 0 0 0 1-3v-1a3 3 0 0 0 0-1Zm-15-22h-8v-16h8a8 8 0 0 1 3 0 9 9 0 0 1 3 2 9 9 0 0 1 1 3 8 8 0 0 1 1 3l-1 3a8 8 0 0 1-1 3 8 8 0 0 1-3 1 8 8 0 0 1-3 1Zm71 6a16 16 0 0 0-3-3 15 15 0 0 0-1-2 13 13 0 0 0 3-4 14 14 0 0 0 1-6 13 13 0 0 0-1-5 14 14 0 0 0-3-5 14 14 0 0 0-4-3 13 13 0 0 0-5-1h-11a3 3 0 0 0-1 1 3 3 0 0 0-1 0 4 4 0 0 0 0 1 3 3 0 0 0-1 2v43a3 3 0 0 0 1 2 3 3 0 0 0 0 1 3 3 0 0 0 1 0 3 3 0 0 0 1 1h11a14 14 0 0 0 6-2 15 15 0 0 0 7-7 15 15 0 0 0 1-6v-4a15 15 0 0 0-1-3Zm-20-22h7a7 7 0 0 1 2 0 7 7 0 0 1 3 2 8 8 0 0 1 1 2 7 7 0 0 1 1 3l-1 3a7 7 0 0 1-1 2 7 7 0 0 1-3 2 7 7 0 0 1-2 0h-7Zm14 32a8 8 0 0 1-1 3 9 9 0 0 1-3 1 8 8 0 0 1-3 1h-7v-16h7a8 8 0 0 1 3 0 9 9 0 0 1 3 2 9 9 0 0 1 1 3 8 8 0 0 1 1 3Zm51-38a3 3 0 0 0-5 0 3 3 0 0 0-1 3v29a11 11 0 0 1-1 4 12 12 0 0 1-2 4 12 12 0 0 1-4 2 11 11 0 0 1-15-6 11 11 0 0 1-1-4v-29a3 3 0 0 0-1-3 3 3 0 0 0-4 0 3 3 0 0 0-1 3v29a17 17 0 0 0 1 7 18 18 0 0 0 4 5 17 17 0 0 0 6 4 17 17 0 0 0 7 2 17 17 0 0 0 7-2 18 18 0 0 0 5-4 18 18 0 0 0 4-5 17 17 0 0 0 2-7v-29a3 3 0 0 0-1-3Zm14 0a3 3 0 0 0-4 0 3 3 0 0 0-1 3v43a3 3 0 0 0 1 3 3 3 0 0 0 2 1 3 3 0 0 0 2-1 3 3 0 0 0 1-3v-43a3 3 0 0 0-1-3Zm36 44a3 3 0 0 0-3-1h-17v-40a3 3 0 0 0-1-3 3 3 0 0 0-4 0 3 3 0 0 0-1 3v43a3 3 0 0 0 0 2 3 3 0 0 0 0 1 3 3 0 0 0 1 0 3 3 0 0 0 2 1h20a3 3 0 0 0 3-2 3 3 0 0 0 1-2l-1-2Zm44-32a26 26 0 0 0-4-5 25 25 0 0 0-11-7 25 25 0 0 0-7-1h-10a3 3 0 0 0-1 1 3 3 0 0 0-1 0 4 4 0 0 0-1 1 3 3 0 0 0 0 2v43a3 3 0 0 0 0 2 3 3 0 0 0 1 1 3 3 0 0 0 1 0 3 3 0 0 0 1 1h10a25 25 0 0 0 13-4 25 25 0 0 0 5-4 25 25 0 0 0 7-11 24 24 0 0 0 1-7l-1-6a26 26 0 0 0-3-6Zm-4 17a18 18 0 0 1-4 9 18 18 0 0 1-4 2 19 19 0 0 1-5 2 18 18 0 0 1-5 1h-7v-37h7a18 18 0 0 1 5 0 18 18 0 0 1 9 5 20 20 0 0 1 2 4 20 20 0 0 1 2 5 18 18 0 0 1 1 4Zm41-1a14 14 0 0 0-2-3 14 14 0 0 0-3-2l-13-7a4 4 0 0 1-2-1 7 7 0 0 1 0-3 6 6 0 0 1 0-3 5 5 0 0 1 1-2 6 6 0 0 1 2-1 8 8 0 0 1 3 0h10a3 3 0 0 0 3-1 3 3 0 0 0 1-3 3 3 0 0 0-1-2 3 3 0 0 0-3-1h-10a14 14 0 0 0-5 1 13 13 0 0 0-4 3 12 12 0 0 0-4 9 14 14 0 0 0 0 3 12 12 0 0 0 1 3 10 10 0 0 0 2 2 11 11 0 0 0 3 2l13 7a7 7 0 0 1 2 3 7 7 0 0 1 1 3 7 7 0 0 1-2 6 8 8 0 0 1-3 2 9 9 0 0 1-3 0h-11a3 3 0 0 0-3 3 3 3 0 0 0 1 2 3 3 0 0 0 2 2h11a16 16 0 0 0 6-1 15 15 0 0 0 5-3 14 14 0 0 0 3-5 13 13 0 0 0 1-5l-1-4a14 14 0 0 0-1-4Z"/></svg>